<svg xmlns="http://www.w3.org/2000/svg" xmlns:xlink="http://www.w3.org/1999/xlink" width="1600" height="217" viewBox="0 0 1600 217"><defs><clipPath id="a"><rect width="1600" height="217" fill="#00e7bf"/></clipPath><clipPath id="b"><rect width="658.394" height="490.186" fill="#fff"/></clipPath><clipPath id="c"><path d="M394.323,161.011c0,181.8,147.373,329.175,329.17,329.175,181.846,0,329.223-147.378,329.223-329.175A327.3,327.3,0,0,0,1010.711,0H436.328a327.816,327.816,0,0,0-42.005,161.011" transform="translate(-394.323)" fill="#fff"/></clipPath><clipPath id="d"><rect width="347.177" height="174.795" fill="none"/></clipPath><clipPath id="e"><rect width="294.516" height="150.248" fill="#5573c6"/></clipPath></defs><g transform="translate(-192 -78)"><g transform="translate(192 78)" clip-path="url(#a)"><path d="M0,0H1684.771V712.582H0Z" transform="translate(-84.771 -216.002)" fill="#f5f7fd"/><path d="M277.141,0C430.2,0,554.282,124.925,554.282,279.029S430.2,558.058,277.141,558.058,0,433.132,0,279.029,124.08,0,277.141,0Z" transform="translate(384.447 100.081)" fill="#9ab3eb" opacity="0.23" style="mix-blend-mode:multiply;isolation:isolate"/><path d="M329.2,0c181.81,0,329.2,148.39,329.2,331.439S511.007,662.878,329.2,662.878,0,514.488,0,331.439,147.386,0,329.2,0Z" transform="translate(876.286 -573.797)" fill="#9ab3eb" opacity="0.23" style="mix-blend-mode:multiply;isolation:isolate"/><path d="M0,0V125c51.943,19.4,113.2,7.922,154.147-33.943A143.778,143.778,0,0,0,194.905,0Z" transform="translate(-2.776 0)" fill="#e9eff9" opacity="0.739"/><rect width="1659.213" height="607.937" transform="translate(-31.015 0)" fill="none"/><g transform="translate(747.23 -133.259)" opacity="0.2"><g transform="translate(240.77 78.51)"><g transform="translate(0 0)" clip-path="url(#d)"><path d="M234.422,0c0,96.528,77.71,174.795,173.589,174.795S581.6,96.528,581.6,0H526.175c0,65.7-52.91,118.968-118.164,118.968C342.734,118.968,289.846,65.7,289.846,0Z" transform="translate(-234.422)" fill="#12263f" opacity="0.428"/></g></g><circle cx="148.5" cy="148.5" r="148.5" transform="translate(396.77 4.259)" fill="#fff" opacity="0.749"/></g><g transform="translate(109.707 -104.371)"><g transform="translate(867.149 455.277) rotate(-90)"><g transform="translate(0 0)"><g transform="translate(0)" clip-path="url(#e)"><path d="M140.229,221.414a81.185,81.185,0,1,1,81.185-81.185,81.277,81.277,0,0,1-81.185,81.185m0,59.044A140.229,140.229,0,1,0,0,140.229,140.229,140.229,0,0,0,140.229,280.458Z" transform="translate(6.084 10.02)" fill="#d2e1f1" opacity="0.426"/></g><g transform="translate(35.169 148.737)"><path d="M83.052,0A83.052,83.052,0,1,1,0,83.052,83.052,83.052,0,0,1,83.052,0Z" transform="translate(0 168.532) rotate(-90)" fill="#b9faee" opacity="0.444" style="mix-blend-mode:multiply;isolation:isolate"/><path d="M9.479,0A9.479,9.479,0,1,1,0,9.479,9.479,9.479,0,0,1,9.479,0Z" transform="translate(140.395 131.085) rotate(-90)" fill="#31313c" opacity="0.444" style="mix-blend-mode:multiply;isolation:isolate"/><g transform="translate(59.232)"><path d="M93.234,0A93.234,93.234,0,1,1,0,93.234,93.234,93.234,0,0,1,93.234,0Z" transform="translate(0)" fill="#00e7bf" opacity="0.444" style="mix-blend-mode:multiply;isolation:isolate"/><g transform="translate(36.402 38.543)"><path d="M2.532,1.21A1.239,1.239,0,0,1,1.265,2.421,1.239,1.239,0,0,1,0,1.21,1.239,1.239,0,0,1,1.265,0,1.239,1.239,0,0,1,2.532,1.21Z" fill="#fff"/><path d="M2.532,1.21A1.239,1.239,0,0,1,1.267,2.421,1.239,1.239,0,0,1,0,1.21,1.239,1.239,0,0,1,1.267,0,1.239,1.239,0,0,1,2.532,1.21Z" transform="translate(11.394)" fill="#fff"/><path d="M2.532,1.21A1.239,1.239,0,0,1,1.267,2.421,1.24,1.24,0,0,1,0,1.21,1.24,1.24,0,0,1,1.267,0,1.239,1.239,0,0,1,2.532,1.21Z" transform="translate(22.787)" fill="#fff"/><path d="M2.532,1.21A1.239,1.239,0,0,1,1.265,2.421,1.239,1.239,0,0,1,0,1.21,1.239,1.239,0,0,1,1.265,0,1.239,1.239,0,0,1,2.532,1.21Z" transform="translate(34.182)" fill="#fff"/><path d="M2.532,1.21A1.239,1.239,0,0,1,1.267,2.421,1.239,1.239,0,0,1,0,1.21,1.239,1.239,0,0,1,1.267,0,1.239,1.239,0,0,1,2.532,1.21Z" transform="translate(45.576)" fill="#fff"/><path d="M2.532,1.21A1.239,1.239,0,0,1,1.267,2.421,1.24,1.24,0,0,1,0,1.21,1.24,1.24,0,0,1,1.267,0,1.239,1.239,0,0,1,2.532,1.21Z" transform="translate(56.969)" fill="#fff"/><path d="M2.532,1.21A1.24,1.24,0,0,1,1.265,2.421,1.239,1.239,0,0,1,0,1.21,1.239,1.239,0,0,1,1.265,0,1.24,1.24,0,0,1,2.532,1.21Z" transform="translate(68.364)" fill="#fff"/><path d="M2.532,1.21A1.239,1.239,0,0,1,1.267,2.421,1.239,1.239,0,0,1,0,1.21,1.239,1.239,0,0,1,1.267,0,1.239,1.239,0,0,1,2.532,1.21Z" transform="translate(79.758)" fill="#fff"/><path d="M2.532,1.21A1.239,1.239,0,0,1,1.267,2.421,1.24,1.24,0,0,1,0,1.21,1.24,1.24,0,0,1,1.267,0,1.239,1.239,0,0,1,2.532,1.21Z" transform="translate(91.151)" fill="#fff"/><path d="M2.532,1.21A1.24,1.24,0,0,1,1.265,2.421,1.239,1.239,0,0,1,0,1.21,1.239,1.239,0,0,1,1.265,0,1.24,1.24,0,0,1,2.532,1.21Z" transform="translate(102.546)" fill="#fff"/><path d="M2.532,1.21A1.239,1.239,0,0,1,1.265,2.421,1.239,1.239,0,0,1,0,1.21,1.239,1.239,0,0,1,1.265,0,1.239,1.239,0,0,1,2.532,1.21Z" transform="translate(113.94)" fill="#fff"/><g transform="translate(0 9.686)"><path d="M2.532,1.21A1.239,1.239,0,0,1,1.265,2.421,1.239,1.239,0,0,1,0,1.21,1.239,1.239,0,0,1,1.265,0,1.239,1.239,0,0,1,2.532,1.21Z" fill="#fff"/><path d="M2.532,1.21A1.239,1.239,0,0,1,1.267,2.421,1.239,1.239,0,0,1,0,1.21,1.239,1.239,0,0,1,1.267,0,1.239,1.239,0,0,1,2.532,1.21Z" transform="translate(11.394)" fill="#fff"/><path d="M2.532,1.21A1.239,1.239,0,0,1,1.267,2.421,1.24,1.24,0,0,1,0,1.21,1.24,1.24,0,0,1,1.267,0,1.239,1.239,0,0,1,2.532,1.21Z" transform="translate(22.787)" fill="#fff"/><path d="M2.532,1.21A1.239,1.239,0,0,1,1.265,2.421,1.239,1.239,0,0,1,0,1.21,1.239,1.239,0,0,1,1.265,0,1.239,1.239,0,0,1,2.532,1.21Z" transform="translate(34.182)" fill="#fff"/><path d="M2.532,1.21A1.239,1.239,0,0,1,1.267,2.421,1.239,1.239,0,0,1,0,1.21,1.239,1.239,0,0,1,1.267,0,1.239,1.239,0,0,1,2.532,1.21Z" transform="translate(45.576)" fill="#fff"/><path d="M2.532,1.21A1.239,1.239,0,0,1,1.267,2.421,1.24,1.24,0,0,1,0,1.21,1.24,1.24,0,0,1,1.267,0,1.239,1.239,0,0,1,2.532,1.21Z" transform="translate(56.969)" fill="#fff"/><path d="M2.532,1.21A1.24,1.24,0,0,1,1.265,2.421,1.239,1.239,0,0,1,0,1.21,1.239,1.239,0,0,1,1.265,0,1.24,1.24,0,0,1,2.532,1.21Z" transform="translate(68.364)" fill="#fff"/><path d="M2.532,1.21A1.239,1.239,0,0,1,1.267,2.421,1.239,1.239,0,0,1,0,1.21,1.239,1.239,0,0,1,1.267,0,1.239,1.239,0,0,1,2.532,1.21Z" transform="translate(79.758)" fill="#fff"/><path d="M2.532,1.21A1.239,1.239,0,0,1,1.267,2.421,1.24,1.24,0,0,1,0,1.21,1.24,1.24,0,0,1,1.267,0,1.239,1.239,0,0,1,2.532,1.21Z" transform="translate(91.151)" fill="#fff"/><path d="M2.532,1.21A1.24,1.24,0,0,1,1.265,2.421,1.239,1.239,0,0,1,0,1.21,1.239,1.239,0,0,1,1.265,0,1.24,1.24,0,0,1,2.532,1.21Z" transform="translate(102.546)" fill="#fff"/><path d="M2.532,1.21A1.239,1.239,0,0,1,1.265,2.421,1.239,1.239,0,0,1,0,1.21,1.239,1.239,0,0,1,1.265,0,1.239,1.239,0,0,1,2.532,1.21Z" transform="translate(113.94)" fill="#fff"/></g><g transform="translate(0 19.372)"><ellipse cx="1.266" cy="1.211" rx="1.266" ry="1.211" fill="#fff"/><path d="M2.532,1.21A1.24,1.24,0,0,1,1.267,2.421,1.24,1.24,0,0,1,0,1.21,1.239,1.239,0,0,1,1.267,0,1.239,1.239,0,0,1,2.532,1.21Z" transform="translate(11.394 0.001)" fill="#fff"/><ellipse cx="1.266" cy="1.211" rx="1.266" ry="1.211" transform="translate(22.788)" fill="#fff"/><path d="M2.532,1.21A1.24,1.24,0,0,1,1.265,2.421,1.24,1.24,0,0,1,0,1.21,1.239,1.239,0,0,1,1.265,0,1.239,1.239,0,0,1,2.532,1.21Z" transform="translate(34.182 0.001)" fill="#fff"/><path d="M2.532,1.21A1.24,1.24,0,0,1,1.267,2.421,1.24,1.24,0,0,1,0,1.21,1.239,1.239,0,0,1,1.267,0,1.239,1.239,0,0,1,2.532,1.21Z" transform="translate(45.576 0.001)" fill="#fff"/><ellipse cx="1.266" cy="1.211" rx="1.266" ry="1.211" transform="translate(56.97)" fill="#fff"/><path d="M2.532,1.21A1.241,1.241,0,0,1,1.265,2.421,1.24,1.24,0,0,1,0,1.21,1.239,1.239,0,0,1,1.265,0,1.24,1.24,0,0,1,2.532,1.21Z" transform="translate(68.364 0.001)" fill="#fff"/><ellipse cx="1.266" cy="1.211" rx="1.266" ry="1.211" transform="translate(79.758)" fill="#fff"/><ellipse cx="1.266" cy="1.211" rx="1.266" ry="1.211" transform="translate(91.152)" fill="#fff"/><path d="M2.532,1.21A1.241,1.241,0,0,1,1.265,2.421,1.24,1.24,0,0,1,0,1.21,1.239,1.239,0,0,1,1.265,0,1.24,1.24,0,0,1,2.532,1.21Z" transform="translate(102.546 0.001)" fill="#fff"/><path d="M2.532,1.21A1.24,1.24,0,0,1,1.265,2.421,1.24,1.24,0,0,1,0,1.21,1.239,1.239,0,0,1,1.265,0,1.239,1.239,0,0,1,2.532,1.21Z" transform="translate(113.94 0.001)" fill="#fff"/></g><g transform="translate(0 29.056)"><ellipse cx="1.266" cy="1.211" rx="1.266" ry="1.211" transform="translate(0 0.001)" fill="#fff"/><path d="M2.532,1.211a1.239,1.239,0,0,1-1.265,1.21A1.239,1.239,0,0,1,0,1.211,1.24,1.24,0,0,1,1.267,0,1.24,1.24,0,0,1,2.532,1.211Z" transform="translate(11.394)" fill="#fff"/><ellipse cx="1.266" cy="1.211" rx="1.266" ry="1.211" transform="translate(22.788 0.001)" fill="#fff"/><path d="M2.532,1.211a1.239,1.239,0,0,1-1.267,1.21A1.239,1.239,0,0,1,0,1.211,1.24,1.24,0,0,1,1.265,0,1.24,1.24,0,0,1,2.532,1.211Z" transform="translate(34.182)" fill="#fff"/><path d="M2.532,1.211a1.239,1.239,0,0,1-1.265,1.21A1.239,1.239,0,0,1,0,1.211,1.24,1.24,0,0,1,1.267,0,1.24,1.24,0,0,1,2.532,1.211Z" transform="translate(45.576)" fill="#fff"/><ellipse cx="1.266" cy="1.211" rx="1.266" ry="1.211" transform="translate(56.97 0.001)" fill="#fff"/><path d="M2.532,1.211a1.24,1.24,0,0,1-1.267,1.21A1.239,1.239,0,0,1,0,1.211,1.24,1.24,0,0,1,1.265,0,1.241,1.241,0,0,1,2.532,1.211Z" transform="translate(68.364)" fill="#fff"/><ellipse cx="1.266" cy="1.211" rx="1.266" ry="1.211" transform="translate(79.758 0.001)" fill="#fff"/><ellipse cx="1.266" cy="1.211" rx="1.266" ry="1.211" transform="translate(91.152 0.001)" fill="#fff"/><path d="M2.532,1.211a1.24,1.24,0,0,1-1.267,1.21A1.239,1.239,0,0,1,0,1.211,1.24,1.24,0,0,1,1.265,0,1.241,1.241,0,0,1,2.532,1.211Z" transform="translate(102.546)" fill="#fff"/><path d="M2.532,1.211a1.239,1.239,0,0,1-1.267,1.21A1.239,1.239,0,0,1,0,1.211,1.24,1.24,0,0,1,1.265,0,1.24,1.24,0,0,1,2.532,1.211Z" transform="translate(113.94)" fill="#fff"/></g><g transform="translate(0 38.742)"><path d="M2.532,1.211a1.239,1.239,0,0,1-1.267,1.21A1.239,1.239,0,0,1,0,1.211,1.239,1.239,0,0,1,1.265,0,1.239,1.239,0,0,1,2.532,1.211Z" transform="translate(0 0)" fill="#fff"/><path d="M2.532,1.211a1.239,1.239,0,0,1-1.265,1.21A1.239,1.239,0,0,1,0,1.211,1.239,1.239,0,0,1,1.267,0,1.239,1.239,0,0,1,2.532,1.211Z" transform="translate(11.394 0)" fill="#fff"/><path d="M2.532,1.211a1.239,1.239,0,0,1-1.265,1.21A1.24,1.24,0,0,1,0,1.211,1.24,1.24,0,0,1,1.267,0,1.239,1.239,0,0,1,2.532,1.211Z" transform="translate(22.787 0)" fill="#fff"/><path d="M2.532,1.211a1.239,1.239,0,0,1-1.267,1.21A1.239,1.239,0,0,1,0,1.211,1.239,1.239,0,0,1,1.265,0,1.239,1.239,0,0,1,2.532,1.211Z" transform="translate(34.182 0)" fill="#fff"/><path d="M2.532,1.211a1.239,1.239,0,0,1-1.265,1.21A1.239,1.239,0,0,1,0,1.211,1.239,1.239,0,0,1,1.267,0,1.239,1.239,0,0,1,2.532,1.211Z" transform="translate(45.576 0)" fill="#fff"/><path d="M2.532,1.211a1.239,1.239,0,0,1-1.265,1.21A1.24,1.24,0,0,1,0,1.211,1.24,1.24,0,0,1,1.267,0,1.239,1.239,0,0,1,2.532,1.211Z" transform="translate(56.969 0)" fill="#fff"/><path d="M2.532,1.211a1.24,1.24,0,0,1-1.267,1.21A1.239,1.239,0,0,1,0,1.211,1.239,1.239,0,0,1,1.265,0,1.24,1.24,0,0,1,2.532,1.211Z" transform="translate(68.364 0)" fill="#fff"/><path d="M2.532,1.211a1.239,1.239,0,0,1-1.265,1.21A1.239,1.239,0,0,1,0,1.211,1.239,1.239,0,0,1,1.267,0,1.239,1.239,0,0,1,2.532,1.211Z" transform="translate(79.758 0)" fill="#fff"/><path d="M2.532,1.211a1.239,1.239,0,0,1-1.265,1.21A1.24,1.24,0,0,1,0,1.211,1.24,1.24,0,0,1,1.267,0,1.239,1.239,0,0,1,2.532,1.211Z" transform="translate(91.151 0)" fill="#fff"/><path d="M2.532,1.211a1.24,1.24,0,0,1-1.267,1.21A1.239,1.239,0,0,1,0,1.211,1.239,1.239,0,0,1,1.265,0,1.24,1.24,0,0,1,2.532,1.211Z" transform="translate(102.546 0)" fill="#fff"/><path d="M2.532,1.211a1.239,1.239,0,0,1-1.267,1.21A1.239,1.239,0,0,1,0,1.211,1.239,1.239,0,0,1,1.265,0,1.239,1.239,0,0,1,2.532,1.211Z" transform="translate(113.94 0)" fill="#fff"/></g><g transform="translate(0 48.428)"><ellipse cx="1.266" cy="1.211" rx="1.266" ry="1.211" transform="translate(0 0)" fill="#fff"/><path d="M2.532,1.211a1.239,1.239,0,0,1-1.265,1.21A1.239,1.239,0,0,1,0,1.211,1.239,1.239,0,0,1,1.267,0,1.239,1.239,0,0,1,2.532,1.211Z" transform="translate(11.394)" fill="#fff"/><ellipse cx="1.266" cy="1.211" rx="1.266" ry="1.211" transform="translate(22.788 0)" fill="#fff"/><path d="M2.532,1.211a1.239,1.239,0,0,1-1.267,1.21A1.239,1.239,0,0,1,0,1.211,1.239,1.239,0,0,1,1.265,0,1.239,1.239,0,0,1,2.532,1.211Z" transform="translate(34.182)" fill="#fff"/><path d="M2.532,1.211a1.239,1.239,0,0,1-1.265,1.21A1.239,1.239,0,0,1,0,1.211,1.239,1.239,0,0,1,1.267,0,1.239,1.239,0,0,1,2.532,1.211Z" transform="translate(45.576)" fill="#fff"/><ellipse cx="1.266" cy="1.211" rx="1.266" ry="1.211" transform="translate(56.97 0)" fill="#fff"/><path d="M2.532,1.211a1.24,1.24,0,0,1-1.267,1.21A1.239,1.239,0,0,1,0,1.211,1.239,1.239,0,0,1,1.265,0,1.24,1.24,0,0,1,2.532,1.211Z" transform="translate(68.364)" fill="#fff"/><ellipse cx="1.266" cy="1.211" rx="1.266" ry="1.211" transform="translate(79.758 0)" fill="#fff"/><ellipse cx="1.266" cy="1.211" rx="1.266" ry="1.211" transform="translate(91.152 0)" fill="#fff"/><path d="M2.532,1.211a1.24,1.24,0,0,1-1.267,1.21A1.239,1.239,0,0,1,0,1.211,1.239,1.239,0,0,1,1.265,0,1.24,1.24,0,0,1,2.532,1.211Z" transform="translate(102.546)" fill="#fff"/><path d="M2.532,1.211a1.239,1.239,0,0,1-1.267,1.21A1.239,1.239,0,0,1,0,1.211,1.239,1.239,0,0,1,1.265,0,1.239,1.239,0,0,1,2.532,1.211Z" transform="translate(113.94)" fill="#fff"/></g><g transform="translate(0 58.114)"><ellipse cx="1.266" cy="1.211" rx="1.266" ry="1.211" fill="#fff"/><path d="M2.532,1.21A1.239,1.239,0,0,1,1.267,2.422,1.239,1.239,0,0,1,0,1.21,1.239,1.239,0,0,1,1.267,0,1.239,1.239,0,0,1,2.532,1.21Z" transform="translate(11.394 0)" fill="#fff"/><ellipse cx="1.266" cy="1.211" rx="1.266" ry="1.211" transform="translate(22.788)" fill="#fff"/><path d="M2.532,1.21A1.239,1.239,0,0,1,1.265,2.422,1.239,1.239,0,0,1,0,1.21,1.239,1.239,0,0,1,1.265,0,1.239,1.239,0,0,1,2.532,1.21Z" transform="translate(34.182 0)" fill="#fff"/><path d="M2.532,1.21A1.239,1.239,0,0,1,1.267,2.422,1.239,1.239,0,0,1,0,1.21,1.239,1.239,0,0,1,1.267,0,1.239,1.239,0,0,1,2.532,1.21Z" transform="translate(45.576 0)" fill="#fff"/><ellipse cx="1.266" cy="1.211" rx="1.266" ry="1.211" transform="translate(56.97)" fill="#fff"/><path d="M2.532,1.21A1.24,1.24,0,0,1,1.265,2.422,1.239,1.239,0,0,1,0,1.21,1.239,1.239,0,0,1,1.265,0,1.24,1.24,0,0,1,2.532,1.21Z" transform="translate(68.364 0)" fill="#fff"/><ellipse cx="1.266" cy="1.211" rx="1.266" ry="1.211" transform="translate(79.758)" fill="#fff"/><ellipse cx="1.266" cy="1.211" rx="1.266" ry="1.211" transform="translate(91.152)" fill="#fff"/><path d="M2.532,1.21A1.24,1.24,0,0,1,1.265,2.422,1.239,1.239,0,0,1,0,1.21,1.239,1.239,0,0,1,1.265,0,1.24,1.24,0,0,1,2.532,1.21Z" transform="translate(102.546 0)" fill="#fff"/><path d="M2.532,1.21A1.239,1.239,0,0,1,1.265,2.422,1.239,1.239,0,0,1,0,1.21,1.239,1.239,0,0,1,1.265,0,1.239,1.239,0,0,1,2.532,1.21Z" transform="translate(113.94 0)" fill="#fff"/></g><g transform="translate(0 67.799)"><path d="M2.532,1.21A1.239,1.239,0,0,1,1.265,2.421,1.239,1.239,0,0,1,0,1.21,1.239,1.239,0,0,1,1.265,0,1.239,1.239,0,0,1,2.532,1.21Z" transform="translate(0 0)" fill="#fff"/><path d="M2.532,1.21A1.239,1.239,0,0,1,1.267,2.421,1.239,1.239,0,0,1,0,1.21,1.239,1.239,0,0,1,1.267,0,1.239,1.239,0,0,1,2.532,1.21Z" transform="translate(11.394 0)" fill="#fff"/><path d="M2.532,1.21A1.239,1.239,0,0,1,1.267,2.421,1.24,1.24,0,0,1,0,1.21,1.24,1.24,0,0,1,1.267,0,1.239,1.239,0,0,1,2.532,1.21Z" transform="translate(22.787 0)" fill="#fff"/><path d="M2.532,1.21A1.239,1.239,0,0,1,1.265,2.421,1.239,1.239,0,0,1,0,1.21,1.239,1.239,0,0,1,1.265,0,1.239,1.239,0,0,1,2.532,1.21Z" transform="translate(34.182 0)" fill="#fff"/><path d="M2.532,1.21A1.239,1.239,0,0,1,1.267,2.421,1.239,1.239,0,0,1,0,1.21,1.239,1.239,0,0,1,1.267,0,1.239,1.239,0,0,1,2.532,1.21Z" transform="translate(45.576 0)" fill="#fff"/><path d="M2.532,1.21A1.239,1.239,0,0,1,1.267,2.421,1.24,1.24,0,0,1,0,1.21,1.24,1.24,0,0,1,1.267,0,1.239,1.239,0,0,1,2.532,1.21Z" transform="translate(56.969 0)" fill="#fff"/><path d="M2.532,1.21A1.24,1.24,0,0,1,1.265,2.421,1.239,1.239,0,0,1,0,1.21,1.239,1.239,0,0,1,1.265,0,1.24,1.24,0,0,1,2.532,1.21Z" transform="translate(68.364 0)" fill="#fff"/><path d="M2.532,1.21A1.239,1.239,0,0,1,1.267,2.421,1.239,1.239,0,0,1,0,1.21,1.239,1.239,0,0,1,1.267,0,1.239,1.239,0,0,1,2.532,1.21Z" transform="translate(79.758 0)" fill="#fff"/><path d="M2.532,1.21A1.239,1.239,0,0,1,1.267,2.421,1.24,1.24,0,0,1,0,1.21,1.24,1.24,0,0,1,1.267,0,1.239,1.239,0,0,1,2.532,1.21Z" transform="translate(91.151 0)" fill="#fff"/><path d="M2.532,1.21A1.24,1.24,0,0,1,1.265,2.421,1.239,1.239,0,0,1,0,1.21,1.239,1.239,0,0,1,1.265,0,1.24,1.24,0,0,1,2.532,1.21Z" transform="translate(102.546 0)" fill="#fff"/><path d="M2.532,1.21A1.239,1.239,0,0,1,1.265,2.421,1.239,1.239,0,0,1,0,1.21,1.239,1.239,0,0,1,1.265,0,1.239,1.239,0,0,1,2.532,1.21Z" transform="translate(113.94 0)" fill="#fff"/></g><g transform="translate(0 77.485)"><ellipse cx="1.266" cy="1.211" rx="1.266" ry="1.211" fill="#fff"/><path d="M2.532,1.21A1.24,1.24,0,0,1,1.267,2.421,1.24,1.24,0,0,1,0,1.21,1.239,1.239,0,0,1,1.267,0,1.239,1.239,0,0,1,2.532,1.21Z" transform="translate(11.394 0.001)" fill="#fff"/><ellipse cx="1.266" cy="1.211" rx="1.266" ry="1.211" transform="translate(22.788)" fill="#fff"/><path d="M2.532,1.21A1.24,1.24,0,0,1,1.265,2.421,1.24,1.24,0,0,1,0,1.21,1.239,1.239,0,0,1,1.265,0,1.239,1.239,0,0,1,2.532,1.21Z" transform="translate(34.182 0.001)" fill="#fff"/><path d="M2.532,1.21A1.24,1.24,0,0,1,1.267,2.421,1.24,1.24,0,0,1,0,1.21,1.239,1.239,0,0,1,1.267,0,1.239,1.239,0,0,1,2.532,1.21Z" transform="translate(45.576 0.001)" fill="#fff"/><ellipse cx="1.266" cy="1.211" rx="1.266" ry="1.211" transform="translate(56.97)" fill="#fff"/><path d="M2.532,1.21A1.241,1.241,0,0,1,1.265,2.421,1.24,1.24,0,0,1,0,1.21,1.239,1.239,0,0,1,1.265,0,1.24,1.24,0,0,1,2.532,1.21Z" transform="translate(68.364 0.001)" fill="#fff"/><ellipse cx="1.266" cy="1.211" rx="1.266" ry="1.211" transform="translate(79.758)" fill="#fff"/><ellipse cx="1.266" cy="1.211" rx="1.266" ry="1.211" transform="translate(91.152)" fill="#fff"/><path d="M2.532,1.21A1.241,1.241,0,0,1,1.265,2.421,1.24,1.24,0,0,1,0,1.21,1.239,1.239,0,0,1,1.265,0,1.24,1.24,0,0,1,2.532,1.21Z" transform="translate(102.546 0.001)" fill="#fff"/><path d="M2.532,1.21A1.24,1.24,0,0,1,1.265,2.421,1.24,1.24,0,0,1,0,1.21,1.239,1.239,0,0,1,1.265,0,1.239,1.239,0,0,1,2.532,1.21Z" transform="translate(113.94 0.001)" fill="#fff"/></g><g transform="translate(0 87.17)"><path d="M2.532,1.211A1.24,1.24,0,0,1,1.265,2.423,1.24,1.24,0,0,1,0,1.211,1.24,1.24,0,0,1,1.265,0,1.24,1.24,0,0,1,2.532,1.211Z" transform="translate(0 0)" fill="#fff"/><path d="M2.532,1.211A1.24,1.24,0,0,1,1.267,2.423,1.24,1.24,0,0,1,0,1.211,1.24,1.24,0,0,1,1.267,0,1.24,1.24,0,0,1,2.532,1.211Z" transform="translate(11.394 0)" fill="#fff"/><path d="M2.532,1.211A1.24,1.24,0,0,1,1.267,2.423,1.241,1.241,0,0,1,0,1.211,1.241,1.241,0,0,1,1.267,0,1.24,1.24,0,0,1,2.532,1.211Z" transform="translate(22.787 0)" fill="#fff"/><path d="M2.532,1.211A1.24,1.24,0,0,1,1.265,2.423,1.24,1.24,0,0,1,0,1.211,1.24,1.24,0,0,1,1.265,0,1.24,1.24,0,0,1,2.532,1.211Z" transform="translate(34.182 0)" fill="#fff"/><path d="M2.532,1.211A1.24,1.24,0,0,1,1.267,2.423,1.24,1.24,0,0,1,0,1.211,1.24,1.24,0,0,1,1.267,0,1.24,1.24,0,0,1,2.532,1.211Z" transform="translate(45.576 0)" fill="#fff"/><path d="M2.532,1.211A1.24,1.24,0,0,1,1.267,2.423,1.241,1.241,0,0,1,0,1.211,1.241,1.241,0,0,1,1.267,0,1.24,1.24,0,0,1,2.532,1.211Z" transform="translate(56.969 0)" fill="#fff"/><path d="M2.532,1.211A1.241,1.241,0,0,1,1.265,2.423,1.24,1.24,0,0,1,0,1.211,1.24,1.24,0,0,1,1.265,0,1.241,1.241,0,0,1,2.532,1.211Z" transform="translate(68.364 0)" fill="#fff"/><path d="M2.532,1.211A1.24,1.24,0,0,1,1.267,2.423,1.24,1.24,0,0,1,0,1.211,1.24,1.24,0,0,1,1.267,0,1.24,1.24,0,0,1,2.532,1.211Z" transform="translate(79.758 0)" fill="#fff"/><path d="M2.532,1.211A1.24,1.24,0,0,1,1.267,2.423,1.241,1.241,0,0,1,0,1.211,1.241,1.241,0,0,1,1.267,0,1.24,1.24,0,0,1,2.532,1.211Z" transform="translate(91.151 0)" fill="#fff"/><path d="M2.532,1.211A1.241,1.241,0,0,1,1.265,2.423,1.24,1.24,0,0,1,0,1.211,1.24,1.24,0,0,1,1.265,0,1.241,1.241,0,0,1,2.532,1.211Z" transform="translate(102.546 0)" fill="#fff"/><path d="M2.532,1.211A1.24,1.24,0,0,1,1.265,2.423,1.24,1.24,0,0,1,0,1.211,1.24,1.24,0,0,1,1.265,0,1.24,1.24,0,0,1,2.532,1.211Z" transform="translate(113.94 0)" fill="#fff"/></g><g transform="translate(0 96.856)"><ellipse cx="1.266" cy="1.211" rx="1.266" ry="1.211" transform="translate(0 0)" fill="#fff"/><path d="M2.532,1.211a1.239,1.239,0,0,1-1.265,1.21A1.239,1.239,0,0,1,0,1.211,1.24,1.24,0,0,1,1.267,0,1.24,1.24,0,0,1,2.532,1.211Z" transform="translate(11.394)" fill="#fff"/><ellipse cx="1.266" cy="1.211" rx="1.266" ry="1.211" transform="translate(22.788 0)" fill="#fff"/><path d="M2.532,1.211a1.239,1.239,0,0,1-1.267,1.21A1.239,1.239,0,0,1,0,1.211,1.24,1.24,0,0,1,1.265,0,1.24,1.24,0,0,1,2.532,1.211Z" transform="translate(34.182)" fill="#fff"/><path d="M2.532,1.211a1.239,1.239,0,0,1-1.265,1.21A1.239,1.239,0,0,1,0,1.211,1.24,1.24,0,0,1,1.267,0,1.24,1.24,0,0,1,2.532,1.211Z" transform="translate(45.576)" fill="#fff"/><ellipse cx="1.266" cy="1.211" rx="1.266" ry="1.211" transform="translate(56.97 0)" fill="#fff"/><path d="M2.532,1.211a1.24,1.24,0,0,1-1.267,1.21A1.239,1.239,0,0,1,0,1.211,1.24,1.24,0,0,1,1.265,0,1.241,1.241,0,0,1,2.532,1.211Z" transform="translate(68.364)" fill="#fff"/><ellipse cx="1.266" cy="1.211" rx="1.266" ry="1.211" transform="translate(79.758 0)" fill="#fff"/><ellipse cx="1.266" cy="1.211" rx="1.266" ry="1.211" transform="translate(91.152 0)" fill="#fff"/><path d="M2.532,1.211a1.24,1.24,0,0,1-1.267,1.21A1.239,1.239,0,0,1,0,1.211,1.24,1.24,0,0,1,1.265,0,1.241,1.241,0,0,1,2.532,1.211Z" transform="translate(102.546)" fill="#fff"/><path d="M2.532,1.211a1.239,1.239,0,0,1-1.267,1.21A1.239,1.239,0,0,1,0,1.211,1.24,1.24,0,0,1,1.265,0,1.24,1.24,0,0,1,2.532,1.211Z" transform="translate(113.94)" fill="#fff"/></g><g transform="translate(0 106.542)"><ellipse cx="1.266" cy="1.211" rx="1.266" ry="1.211" transform="translate(0 0)" fill="#fff"/><path d="M2.532,1.211a1.239,1.239,0,0,1-1.265,1.21A1.239,1.239,0,0,1,0,1.211,1.239,1.239,0,0,1,1.267,0,1.239,1.239,0,0,1,2.532,1.211Z" transform="translate(11.394)" fill="#fff"/><ellipse cx="1.266" cy="1.211" rx="1.266" ry="1.211" transform="translate(22.788 0)" fill="#fff"/><path d="M2.532,1.211a1.239,1.239,0,0,1-1.267,1.21A1.239,1.239,0,0,1,0,1.211,1.239,1.239,0,0,1,1.265,0,1.239,1.239,0,0,1,2.532,1.211Z" transform="translate(34.182)" fill="#fff"/><path d="M2.532,1.211a1.239,1.239,0,0,1-1.265,1.21A1.239,1.239,0,0,1,0,1.211,1.239,1.239,0,0,1,1.267,0,1.239,1.239,0,0,1,2.532,1.211Z" transform="translate(45.576)" fill="#fff"/><ellipse cx="1.266" cy="1.211" rx="1.266" ry="1.211" transform="translate(56.97 0)" fill="#fff"/><path d="M2.532,1.211a1.24,1.24,0,0,1-1.267,1.21A1.239,1.239,0,0,1,0,1.211,1.239,1.239,0,0,1,1.265,0,1.24,1.24,0,0,1,2.532,1.211Z" transform="translate(68.364)" fill="#fff"/><ellipse cx="1.266" cy="1.211" rx="1.266" ry="1.211" transform="translate(79.758 0)" fill="#fff"/><ellipse cx="1.266" cy="1.211" rx="1.266" ry="1.211" transform="translate(91.152 0)" fill="#fff"/><path d="M2.532,1.211a1.24,1.24,0,0,1-1.267,1.21A1.239,1.239,0,0,1,0,1.211,1.239,1.239,0,0,1,1.265,0,1.24,1.24,0,0,1,2.532,1.211Z" transform="translate(102.546)" fill="#fff"/><path d="M2.532,1.211a1.239,1.239,0,0,1-1.267,1.21A1.239,1.239,0,0,1,0,1.211,1.239,1.239,0,0,1,1.265,0,1.239,1.239,0,0,1,2.532,1.211Z" transform="translate(113.94)" fill="#fff"/></g></g></g></g></g></g><g transform="translate(867 209.717)"><path d="M18.074,7.61A10.464,10.464,0,1,1,7.61,18.074,10.476,10.476,0,0,1,18.074,7.61m0-7.61A18.074,18.074,0,1,0,36.149,18.074,18.074,18.074,0,0,0,18.074,0Z" transform="translate(315.873 44.25)" fill="#f6f6f6"/><path d="M21.612,9.1A12.512,12.512,0,1,1,9.1,21.612,12.526,12.526,0,0,1,21.612,9.1m0-9.1A21.612,21.612,0,1,0,43.223,21.612,21.612,21.612,0,0,0,21.612,0Z" transform="translate(7.643 0)" fill="#12263f"/><g transform="translate(184.076 57.899)"><g transform="translate(8.99)"><path d="M-12997.418-11381.443v6.937" transform="translate(12997.418 11392.497)" fill="none" stroke="#31313c" stroke-linecap="round" stroke-width="2"/><path d="M-12997.418-11381.443v6.937" transform="translate(12997.418 11381.443)" fill="none" stroke="#31313c" stroke-linecap="round" stroke-width="2"/></g><g transform="translate(17.99 8.993) rotate(90)"><path d="M0,5.652V0" transform="translate(0 0)" fill="none" stroke="#31313c" stroke-linecap="round" stroke-width="2"/><path d="M0,4.411V0" transform="translate(0 13.58)" fill="none" stroke="#31313c" stroke-linecap="round" stroke-width="2"/></g></g><g transform="translate(0 148.095)"><g transform="translate(8.99)"><path d="M-12997.418-11381.443v6.937" transform="translate(12997.418 11392.497)" fill="none" stroke="#fff" stroke-linecap="round" stroke-width="2"/><path d="M-12997.418-11381.443v6.937" transform="translate(12997.418 11381.443)" fill="none" stroke="#fff" stroke-linecap="round" stroke-width="2"/></g><g transform="translate(17.99 8.993) rotate(90)"><path d="M0,5.652V0" transform="translate(0 0)" fill="none" stroke="#fff" stroke-linecap="round" stroke-width="2"/><path d="M0,4.411V0" transform="translate(0 13.58)" fill="none" stroke="#fff" stroke-linecap="round" stroke-width="2"/></g></g></g></g></g><g transform="translate(789.18 95.726)"><path d="M239.808,0a3.944,3.944,0,1,0,3.947,3.94A3.941,3.941,0,0,0,239.808,0" transform="translate(-40.935)" fill="#fff"/><path d="M222.543,0a3.944,3.944,0,1,0,3.947,3.94A3.941,3.941,0,0,0,222.543,0" transform="translate(-62.654)" fill="#fff"/><path d="M205.275,0a3.944,3.944,0,1,0,3.947,3.94A3.943,3.943,0,0,0,205.275,0" transform="translate(-84.376)" fill="#fff"/><path d="M188.006,0a3.944,3.944,0,1,0,3.947,3.94A3.94,3.94,0,0,0,188.006,0" transform="translate(-106.094)" fill="#fff"/><path d="M170.748,0a3.944,3.944,0,1,0,3.94,3.94A3.941,3.941,0,0,0,170.748,0" transform="translate(-127.814)" fill="#fff"/><path d="M153.482,0a3.944,3.944,0,1,0,3.947,3.94A3.941,3.941,0,0,0,153.482,0" transform="translate(-149.535)" fill="#fff"/><path d="M231.176,8.478a3.947,3.947,0,1,0,3.945,3.947,3.941,3.941,0,0,0-3.945-3.947" transform="translate(-51.794 10.666)" fill="#fff"/><path d="M213.91,8.478a3.947,3.947,0,1,0,3.945,3.947,3.942,3.942,0,0,0-3.945-3.947" transform="translate(-73.515 10.666)" fill="#fff"/><path d="M196.639,8.478a3.947,3.947,0,1,0,3.947,3.947,3.941,3.941,0,0,0-3.947-3.947" transform="translate(-95.233 10.666)" fill="#fff"/><path d="M179.381,8.478a3.947,3.947,0,1,0,3.938,3.947,3.941,3.941,0,0,0-3.938-3.947" transform="translate(-116.953 10.666)" fill="#fff"/><path d="M162.115,8.478a3.947,3.947,0,1,0,3.94,3.947,3.942,3.942,0,0,0-3.94-3.947" transform="translate(-138.674 10.666)" fill="#fff"/><path d="M239.808,18.415a3.944,3.944,0,1,0,3.947,3.947,3.942,3.942,0,0,0-3.947-3.947" transform="translate(-40.935 23.167)" fill="#fff"/><path d="M222.543,18.415a3.944,3.944,0,1,0,3.947,3.947,3.942,3.942,0,0,0-3.947-3.947" transform="translate(-62.654 23.167)" fill="#fff"/><path d="M205.275,18.415a3.944,3.944,0,1,0,3.947,3.947,3.945,3.945,0,0,0-3.947-3.947" transform="translate(-84.376 23.167)" fill="#fff"/><path d="M188.006,18.415a3.944,3.944,0,1,0,3.947,3.947,3.941,3.941,0,0,0-3.947-3.947" transform="translate(-106.094 23.167)" fill="#fff"/><path d="M170.748,18.415a3.944,3.944,0,1,0,3.94,3.947,3.942,3.942,0,0,0-3.94-3.947" transform="translate(-127.814 23.167)" fill="#fff"/><path d="M153.482,18.415a3.944,3.944,0,1,0,3.947,3.947,3.942,3.942,0,0,0-3.947-3.947" transform="translate(-149.535 23.167)" fill="#fff"/></g></g></svg>